# xmcd CD database file
#
# Track frame offsets:
#	150
#	14579
#	36670
#	52944
#	69878
#	91813
#	113515
#	127262
#	146411
#	161873
#	183175
#	209286
#	230993
#	251067
#	274834
#	294544
#	317576
#
# Disc length: 4510 seconds
#
# Revision: 0
# Processed by: cddbd v1.4PL0 Copyright (c) Steve Scherf et al.
# Submitted via: CDex 1.50beta9
#
DISCID=fe119c11
DTITLE=Goodtime Levee Stompers - Easy Rider
DYEAR=1900
DGENRE=Jazz
TTITLE0=Four Or Five Times
TTITLE1=Big Lip Blues
TTITLE2=Royal Telephone
TTITLE3=Oh Didn't He Ramble
TTITLE4=You're Just In Love
TTITLE5=Pretty Baby
TTITLE6=Get Out Of Here And Go On Home
TTITLE7=Dallas Blues
TTITLE8=Tie Me To Your Apron Strings Again
TTITLE9=Here Comes The Hot Tamale Man
TTITLE10=Tishomingo Blues
TTITLE11=I Wonder Why My Easy Rider's Gone
TTITLE12=His Eye Is On The Sparrow
TTITLE13=I Can't Escape From You
TTITLE14=I'll Always Be In Love With You
TTITLE15=Let The Lower Lights Be Burning
TTITLE16=Move The Body Over
EXTD=
EXTT0=
EXTT1=
EXTT2=
EXTT3=
EXTT4=
EXTT5=
EXTT6=
EXTT7=
EXTT8=
EXTT9=
EXTT10=
EXTT11=
EXTT12=
EXTT13=
EXTT14=
EXTT15=
EXTT16=
PLAYORDER=
